<?xml version="1.0" encoding="UTF-8" standalone="no"?>
<!-- Created with Inkscape (http://www.inkscape.org/) -->

<svg
   xmlns:dc="http://purl.org/dc/elements/1.1/"
   xmlns:cc="http://creativecommons.org/ns#"
   xmlns:rdf="http://www.w3.org/1999/02/22-rdf-syntax-ns#"
   xmlns:svg="http://www.w3.org/2000/svg"
   xmlns="http://www.w3.org/2000/svg"
   xmlns:sodipodi="http://sodipodi.sourceforge.net/DTD/sodipodi-0.dtd"
   xmlns:inkscape="http://www.inkscape.org/namespaces/inkscape"
   width="744.09448819"
   height="1052.3622047"
   id="svg2"
   version="1.1"
   inkscape:version="0.48.3.1 r9886"
   sodipodi:docname="magnetfeld.svg">
  <defs
     id="defs4" />
  <sodipodi:namedview
     id="base"
     pagecolor="#ffffff"
     bordercolor="#666666"
     borderopacity="1.0"
     inkscape:pageopacity="0.0"
     inkscape:pageshadow="2"
     inkscape:zoom="0.56729519"
     inkscape:cx="372.04724"
     inkscape:cy="526.18109"
     inkscape:document-units="px"
     inkscape:current-layer="layer1"
     showgrid="false"
     inkscape:window-width="1215"
     inkscape:window-height="776"
     inkscape:window-x="65"
     inkscape:window-y="24"
     inkscape:window-maximized="1" />
  <metadata
     id="metadata7">
    <rdf:RDF>
      <cc:Work
         rdf:about="">
        <dc:format>image/svg+xml</dc:format>
        <dc:type
           rdf:resource="http://purl.org/dc/dcmitype/StillImage" />
        <dc:title></dc:title>
      </cc:Work>
    </rdf:RDF>
  </metadata>
  <g
     inkscape:label="Layer 1"
     inkscape:groupmode="layer"
     id="layer1">
    <g
       id="g4208"
       inkscape:export-filename="/home/moe/Dropbox/projects/moek.github.com/img/geogr-magn-nordpol.png"
       inkscape:export-xdpi="40.982006"
       inkscape:export-ydpi="40.982006"
       transform="translate(-33.492264,-405.43267)">
      <g
         id="g4195">
        <g
           id="g3890">
          <path
             transform="matrix(1.4744597,0,0,1.4744597,-97.616212,-239.79643)"
             d="m 431.87394,618.72552 c 0,62.30659 -50.50947,112.81605 -112.81605,112.81605 -62.30658,0 -112.81605,-50.50946 -112.81605,-112.81605 0,-62.30658 50.50947,-112.81604 112.81605,-112.81604 62.30658,0 112.81605,50.50946 112.81605,112.81604 z"
             sodipodi:ry="112.81605"
             sodipodi:rx="112.81605"
             sodipodi:cy="618.72552"
             sodipodi:cx="319.05789"
             id="path3021"
             style="fill:#ffffff;fill-opacity:1;stroke:#000000;stroke-opacity:1"
             sodipodi:type="arc" />
          <path
             transform="matrix(1.5639814,0,0,1.8272495,-136.12049,-447.45695)"
             d="m 430.11118,613.43726 c 0,10.70894 -46.95802,19.39025 -104.88367,19.39025 -57.92565,0 -104.88367,-8.68131 -104.88367,-19.39025 0,-10.70895 46.95802,-19.39026 104.88367,-19.39026 57.92565,0 104.88367,8.68131 104.88367,19.39026 z"
             sodipodi:ry="19.390259"
             sodipodi:rx="104.88367"
             sodipodi:cy="613.43726"
             sodipodi:cx="325.22751"
             id="path3791"
             style="fill:#ffffff;fill-opacity:1;stroke:#000000;stroke-width:1.00041831;stroke-miterlimit:4;stroke-opacity:1;stroke-dasharray:8.00334652, 4.00167326;stroke-dashoffset:0"
             sodipodi:type="arc" />
          <text
             sodipodi:linespacing="125%"
             id="text3811"
             y="680.49396"
             x="324.48126"
             style="font-size:22.70416069px;font-style:normal;font-weight:normal;line-height:125%;letter-spacing:0px;word-spacing:0px;fill:#000000;fill-opacity:1;stroke:none;font-family:Sans"
             xml:space="preserve"><tspan
               y="680.49396"
               x="324.48126"
               id="tspan3813"
               sodipodi:role="line">Äquator</tspan></text>
        </g>
        <path
           sodipodi:type="arc"
           style="fill:#ff0000;fill-opacity:1;stroke:#000000;stroke-width:1.14640009;stroke-miterlimit:4;stroke-opacity:1;stroke-dasharray:none;stroke-dashoffset:0"
           id="path3852"
           sodipodi:cx="363.12665"
           sodipodi:cy="495.33295"
           sodipodi:rx="14.102006"
           sodipodi:ry="14.102006"
           d="m 377.22865,495.33295 c 0,7.78832 -6.31368,14.102 -14.102,14.102 -7.78832,0 -14.10201,-6.31368 -14.10201,-14.102 0,-7.78833 6.31369,-14.10201 14.10201,-14.10201 7.78832,0 14.102,6.31368 14.102,14.10201 z"
           transform="matrix(0.75976969,0,0,0.75976969,96.52228,131.33325)" />
        <path
           sodipodi:type="arc"
           style="fill:#000000;fill-opacity:1;stroke:#000000;stroke-width:1.14700007;stroke-miterlimit:4;stroke-opacity:1;stroke-dasharray:none;stroke-dashoffset:0"
           id="path3852-7"
           sodipodi:cx="363.12665"
           sodipodi:cy="495.33295"
           sodipodi:rx="14.102006"
           sodipodi:ry="14.102006"
           d="m 377.22865,495.33295 c 0,7.78832 -6.31368,14.102 -14.102,14.102 -7.78832,0 -14.10201,-6.31368 -14.10201,-14.102 0,-7.78833 6.31369,-14.10201 14.10201,-14.10201 7.78832,0 14.102,6.31368 14.102,14.10201 z"
           transform="matrix(0.75976969,0,0,0.75976969,95.81053,461.90975)" />
        <text
           xml:space="preserve"
           style="font-size:26.0704689px;font-style:normal;font-weight:normal;line-height:125%;letter-spacing:0px;word-spacing:0px;fill:#ff0000;fill-opacity:1;stroke:none;font-family:Sans"
           x="415.01501"
           y="491.80078"
           id="text3896"
           sodipodi:linespacing="125%"><tspan
             sodipodi:role="line"
             id="tspan3898"
             x="415.01501"
             y="491.80078">geogr. Nordpol</tspan></text>
        <text
           xml:space="preserve"
           style="font-size:26.0704689px;font-style:normal;font-weight:normal;line-height:125%;letter-spacing:0px;word-spacing:0px;fill:#000000;fill-opacity:1;stroke:none;font-family:Sans"
           x="160.08775"
           y="879.75391"
           id="text3896-2"
           sodipodi:linespacing="125%"><tspan
             sodipodi:role="line"
             id="tspan3898-5"
             x="160.08775"
             y="879.75391">geogr. Südpol</tspan></text>
      </g>
      <g
         id="g4079">
        <g
           id="g4063">
          <path
             inkscape:connector-curvature="0"
             id="path3987"
             d="m 302.4475,507.67984 c 0,1.15349 0,2.30699 0,3.46049 -0.2307,0.4614 -0.59093,0.87836 -0.6921,1.3842 -0.27146,1.35732 0.22757,2.78723 0,4.1526 -0.11993,0.71961 -0.58892,1.35409 -0.6921,2.0763 -0.1305,0.91352 0.13051,1.85487 0,2.7684 -0.10317,0.7222 -0.58892,1.35409 -0.69209,2.0763 -0.13051,0.91352 0,1.84559 0,2.76839 0,0.6921 0,1.3842 0,2.0763 0,0.6921 0.11378,1.39362 0,2.0763 -0.11994,0.71961 -0.54903,1.36093 -0.6921,2.0763 -0.0905,0.45244 0,0.9228 0,1.3842 0,1.1535 0,2.307 0,3.4605 0,0.2307 0.16313,0.52897 0,0.6921 -0.16313,0.16313 -0.52897,0.16313 -0.6921,0 -0.16313,-0.16313 0.16313,-0.52897 0,-0.6921 -0.16313,-0.16313 -0.4614,0 -0.6921,0"
             style="fill:none;stroke:#000000;stroke-width:1px;stroke-linecap:butt;stroke-linejoin:miter;stroke-opacity:1" />
          <path
             inkscape:connector-curvature="0"
             id="path3989"
             d="m 286.52921,516.67713 c 2.36941,-1.0631 2.25732,1.47471 3.4605,2.0763 0.20635,0.10317 0.47324,-0.073 0.6921,0 0.97878,0.32626 1.8456,0.9228 2.7684,1.3842 0.4614,0.2307 0.9228,0.4614 1.3842,0.6921 0.4614,0.2307 0.97151,0.38258 1.3842,0.6921 0.52201,0.39151 0.87467,0.97657 1.3842,1.3842 0.64952,0.51962 1.42677,0.86457 2.0763,1.38419 0.50953,0.40763 0.87466,0.97658 1.38419,1.3842 0.64953,0.51963 1.48813,0.79603 2.0763,1.3842 0.58818,0.58817 0.79603,1.48813 1.3842,2.0763 1.17635,1.17634 2.85355,1.72916 4.1526,2.7684 0.50953,0.40762 0.87467,0.97657 1.3842,1.3842 0.64953,0.51962 1.42677,0.86458 2.0763,1.3842 0.50953,0.40762 0.86218,0.99269 1.3842,1.3842 0.41269,0.30951 0.95497,0.40595 1.3842,0.6921 0.27146,0.18097 0.42063,0.51112 0.6921,0.6921 0.34853,1.5248 1.42378,0.36584 2.07629,0.6921 0.29182,0.1459 0.4614,0.4614 0.6921,0.6921"
             style="fill:none;stroke:#000000;stroke-width:1px;stroke-linecap:butt;stroke-linejoin:miter;stroke-opacity:1" />
          <path
             inkscape:connector-curvature="0"
             id="path3995"
             d="m 136.34361,489.68525 c 0.48003,1.07078 -0.3272,4.22799 0,5.53679 0.12512,0.50046 0.59093,0.87836 0.6921,1.3842 0.13573,0.67866 -0.13573,1.39764 0,2.0763 0.10117,0.50584 0.56699,0.88374 0.6921,1.3842 0.11191,0.44762 -0.11191,0.93658 0,1.3842 0.12512,0.50046 0.56699,0.88374 0.6921,1.3842 0.3205,1.28201 -0.62306,2.0763 1.3842,2.0763 0.2307,0 0.52897,0.16313 0.6921,0 0.0713,-0.0713 -0.0575,-3.28796 0,-3.4605 0.10317,-0.30952 0.58893,-0.38258 0.6921,-0.6921 0.29181,-0.87544 -0.22381,-1.87315 0,-2.7684 0.12511,-0.50046 0.56698,-0.88374 0.6921,-1.3842 0.1119,-0.44762 -0.11191,-0.93657 0,-1.3842 0.12511,-0.50045 0.56698,-0.88374 0.6921,-1.3842 0.1119,-0.44762 -0.14591,-0.94647 0,-1.38419 0.10317,-0.30952 0.51112,-0.42064 0.6921,-0.6921 0.28615,-0.42923 0.52897,-0.89481 0.6921,-1.3842 0.3076,-0.9228 -0.5383,-0.6921 0.6921,-0.6921 0.2307,0 0.48575,-0.10317 0.6921,0 1.21844,0.60922 0.40913,0.94444 0.6921,2.0763 1.9606,3.92121 -0.25793,-1.03173 0.69209,2.76839 0.12512,0.50046 0.59094,0.87836 0.6921,1.3842 0.22622,1.1311 -0.27976,2.34144 0,3.4605 0.89845,3.59378 0.6921,-0.73885 0.6921,2.7684 0,3.15063 -0.32625,0.0396 0.6921,2.0763 0.20635,0.41269 -0.4614,1.3842 0,1.3842 1.14771,0 0.48529,-0.97058 0.6921,-1.3842 0.14591,-0.29182 0.58893,-0.38259 0.6921,-0.6921 0.29182,-0.87545 -0.22381,-1.87315 0,-2.7684 0.25023,-1.00092 1.13397,-1.76748 1.3842,-2.7684 0.11191,-0.44762 -0.0905,-0.93176 0,-1.3842 0.14308,-0.71537 0.54903,-1.36093 0.6921,-2.0763 0.0905,-0.45244 -0.14591,-0.94647 0,-1.3842 0.10317,-0.30951 0.51113,-0.42063 0.6921,-0.69209 0.065,-0.0976 1.17534,-2.97726 2.0763,-2.0763 0.16313,0.16313 -0.073,0.47324 0,0.6921 0.2307,0.4614 0.4614,0.9228 0.6921,1.3842 0,0.2307 -0.0729,0.47323 0,0.69209 0.32626,0.97878 1.18186,1.75672 1.3842,2.7684 0.13573,0.67866 -0.13573,1.39764 0,2.0763 0.10117,0.50584 0.4614,0.9228 0.6921,1.3842 0.2307,0.4614 0.4614,0.9228 0.6921,1.3842 0.838,1.67601 0.32733,1.01943 1.3842,2.0763 0.2307,0.2307 0.40028,0.54619 0.6921,0.6921 0.20634,0.10317 0.4614,0 0.6921,0 0.2307,0 0.4614,0 0.6921,0"
             style="fill:none;stroke:#000000;stroke-width:1px;stroke-linecap:butt;stroke-linejoin:miter;stroke-opacity:1" />
          <path
             inkscape:connector-curvature="0"
             id="path3997"
             d="m 169.56439,495.22204 c 0.2307,-0.9228 -0.2307,-2.99909 0.6921,-2.76839 0.9228,0.2307 -0.6921,3.71959 -0.6921,2.76839 0,-1.17634 0.49871,-2.30016 0.6921,-3.46049 0.20289,-1.21733 -0.1238,-0.2476 -0.6921,-1.3842 -0.20634,-0.41269 0.32626,-1.05794 0,-1.3842 -0.16313,-0.16313 -0.52897,0.16313 -0.6921,0 -0.16313,-0.16313 0.16313,-0.52897 0,-0.6921 -0.0976,-0.0976 -1.93433,-0.071 -2.0763,0 -0.29181,0.14591 -0.4614,0.4614 -0.6921,0.6921 -1.05687,1.05687 -0.54619,0.40028 -1.3842,2.0763 -0.2307,0.4614 -0.4614,0.9228 -0.6921,1.3842 -0.2307,0.4614 -0.56698,0.88374 -0.6921,1.38419 -0.1361,0.54442 0,3.43287 0,4.1526 0,0.4614 0,0.9228 0,1.3842 0,0.4614 -0.1119,0.93658 0,1.3842 0.12512,0.50046 0.52897,0.89481 0.6921,1.3842 0.073,0.21886 -0.10317,0.48575 0,0.6921 0.14591,0.29181 0.4614,0.4614 0.6921,0.6921 0.2307,0.2307 0.40029,0.54619 0.6921,0.6921 0.20635,0.10317 0.4614,0 0.6921,0 1.95172,0 1.32421,0.06 2.7684,-1.3842 0.2307,-0.2307 0.58893,-0.38258 0.6921,-0.6921 0.21886,-0.65658 -0.21886,-1.41972 0,-2.0763 0.16313,-0.48939 0.6921,-0.86834 0.6921,-1.3842 0,-1.17634 -0.6921,-2.28415 -0.6921,-3.4605 0,-1.40329 0.6921,-2.7493 0.6921,-4.15259 0,-0.2307 0.16313,-0.52897 0,-0.6921 -0.16313,-0.16313 -0.52897,0.16313 -0.6921,0 -0.16313,-0.16313 -0.2307,-0.6921 0,-0.6921 0.2307,0 0,0.4614 0,0.6921 0,0.2307 0,0.4614 0,0.6921 0,1.3842 -0.24761,2.79072 0,4.15259 0.26101,1.43554 1.03032,2.73709 1.3842,4.1526 0,3.15064 -0.32626,0.0396 0.6921,2.0763 0.1372,0.27441 -0.14149,1.93481 0,2.0763 0.16313,0.16313 0.52897,-0.16313 0.6921,0 0.16313,0.16313 0,0.4614 0,0.6921 0,0.2307 0,0.4614 0,0.6921"
             style="fill:none;stroke:#000000;stroke-width:1px;stroke-linecap:butt;stroke-linejoin:miter;stroke-opacity:1" />
          <path
             inkscape:connector-curvature="0"
             id="path3999"
             d="m 183.40638,493.83784 c 0.2307,-0.92279 -0.2307,-2.99909 0.6921,-2.76839 0.9228,0.2307 -0.0195,3.44099 -0.6921,2.76839 -0.81565,-0.81564 0.18964,-2.32269 0,-3.46049 -0.003,-0.0153 -1.9828,-2.02955 -2.0763,-2.0763 -0.20634,-0.10317 -0.4614,0 -0.6921,0 -0.2307,0 -0.4614,0 -0.6921,0 -0.31169,0 -1.86567,-0.10532 -2.0763,0 -0.59477,0.29739 -1.9339,2.89092 -2.07629,3.4605 -0.11191,0.44762 0.1119,0.93657 0,1.38419 -0.12512,0.50046 -0.56699,0.88375 -0.6921,1.3842 -0.11191,0.44763 0,0.9228 0,1.3842 0,0.6921 -0.13574,1.39764 0,2.0763 0.10117,0.50584 0.56698,0.88374 0.6921,1.3842 0.1119,0.44762 -0.11191,0.93658 0,1.3842 0.12511,0.50046 0.4614,0.9228 0.6921,1.3842 0.2307,0.4614 0.40595,0.95498 0.6921,1.3842 0.18097,0.27146 0.46139,0.4614 0.69209,0.6921 0.2307,0.2307 0.40029,0.54619 0.6921,0.6921 0.21063,0.10531 1.76461,0 2.0763,0 0.2307,0 0.52897,0.16313 0.6921,0 0.32626,-0.32626 -0.20634,-0.97151 0,-1.3842 0.14591,-0.29182 0.58893,-0.38259 0.6921,-0.6921 0.0434,-0.13031 0.0286,-4.06691 0,-4.1526 -0.16313,-0.48939 -0.83382,-0.88819 -0.6921,-1.3842 0.36956,-1.29344 0.7311,-3.4605 2.0763,-3.4605 1.24236,0 0.89481,2.3186 1.3842,3.4605 1.87464,4.37416 -0.79935,-2.02435 2.0763,2.7684 0.37534,0.62557 0.42116,1.39894 0.6921,2.0763 0.19158,0.47896 0.50051,0.90523 0.6921,1.3842 0.27094,0.67736 0.4614,1.3842 0.6921,2.0763 0.2307,0.6921 0.57216,1.35668 0.6921,2.0763 0.18963,1.1378 0,2.30699 0,3.46049 0,0.6921 0.11378,1.39362 0,2.0763 -0.21381,1.28285 -0.8194,2.33089 -1.3842,3.4605 -0.2307,0.4614 -0.32733,1.01943 -0.6921,1.3842 -0.36477,0.36477 -0.9228,0.4614 -1.3842,0.6921 -0.4614,0.2307 -0.9228,0.4614 -1.3842,0.6921 -0.4614,0.2307 -0.88374,0.56698 -1.3842,0.6921 -0.44762,0.1119 -0.9228,0 -1.3842,0 -0.4614,0 -0.93657,0.1119 -1.3842,0 -0.50046,-0.12512 -0.9228,-0.4614 -1.3842,-0.6921 -0.4614,-0.2307 -0.95497,-0.40595 -1.3842,-0.6921 -0.27146,-0.18098 -0.42063,-0.51113 -0.69209,-0.6921 -0.42923,-0.28615 -1.01944,-0.32733 -1.3842,-0.6921 -0.36477,-0.36477 -0.4614,-0.9228 -0.6921,-1.3842 -0.2307,-0.4614 -0.56699,-0.88374 -0.6921,-1.3842 -0.11191,-0.44762 0,-0.9228 0,-1.3842 0,-0.4614 0,-0.9228 0,-1.3842"
             style="fill:none;stroke:#000000;stroke-width:1px;stroke-linecap:butt;stroke-linejoin:miter;stroke-opacity:1" />
          <path
             inkscape:connector-curvature="0"
             id="path4001"
             d="m 192.40368,484.84055 c -0.69019,1.38037 -1.78686,2.54198 -1.3842,4.1526 0.12511,0.50046 0.59093,0.87835 0.6921,1.3842 0.4576,2.28802 -0.35955,1.66276 0,3.46049 0.14307,0.71537 0.57216,1.35669 0.6921,2.0763 0,5.27978 -0.30952,-0.54596 0.69209,3.4605 0.11191,0.44762 -0.1459,0.94648 0,1.3842 0.10318,0.30952 0.58893,0.38258 0.6921,0.6921 0.0901,0.27028 -0.38996,2.0763 0.6921,2.0763 0.2307,0 -0.16313,-0.52897 0,-0.6921 0.16313,-0.16313 0.52897,0.16313 0.6921,0 0.32626,-0.32626 -0.1459,-0.94648 0,-1.3842 0.16313,-0.48939 0.52897,-0.89481 0.6921,-1.3842 0.21886,-0.65658 -0.16786,-1.40486 0,-2.0763 0.12512,-0.50046 0.56699,-0.88374 0.6921,-1.3842 0.11191,-0.44762 -0.1459,-0.94647 0,-1.3842 0.10317,-0.30951 0.58893,-0.38258 0.6921,-0.6921 0.14591,-0.43772 -0.14591,-0.94647 0,-1.3842 0.10317,-0.30951 0.58893,-0.38258 0.6921,-0.69209 1.10736,-3.32208 -1.01508,-0.53061 0.6921,-1.3842 0.29182,-0.14591 0.36584,-0.6921 0.6921,-0.6921 1.1477,0 0.48529,0.97058 0.6921,1.3842 1.0553,2.1106 0.54867,-1.26582 1.3842,2.07629 0.11191,0.44763 -0.11191,0.93658 0,1.3842 0.12511,0.50046 0.56698,0.88374 0.6921,1.3842 0.1119,0.44763 -0.11191,0.93658 0,1.3842 0.12511,0.50046 0.4614,0.9228 0.6921,1.3842 0.2307,0.4614 0.40595,0.95498 0.6921,1.3842 0.18097,0.27146 0.58893,0.38258 0.6921,0.6921 0.14591,0.43772 -0.14591,0.94648 0,1.3842 0.20634,0.61903 1.09238,0.80057 1.3842,1.3842 0.10317,0.20634 -0.16313,0.52897 0,0.6921 0.16313,0.16313 0.4614,0 0.6921,0 0.2307,0 0.52897,0.16313 0.6921,0 0.16313,-0.16313 0,-0.4614 0,-0.6921"
             style="fill:none;stroke:#000000;stroke-width:1px;stroke-linecap:butt;stroke-linejoin:miter;stroke-opacity:1" />
          <path
             inkscape:connector-curvature="0"
             id="path4003"
             d="m 213.85876,504.91144 -2.7684,-2.7684"
             style="fill:none;stroke:#000000;stroke-width:1px;stroke-linecap:butt;stroke-linejoin:miter;stroke-opacity:1" />
          <path
             inkscape:connector-curvature="0"
             id="path4005"
             d="m 231.16125,479.99585 c -0.9228,-0.6921 -1.6974,-1.6479 -2.7684,-2.0763 -0.30292,-0.12116 -0.42063,0.51113 -0.6921,0.6921 -0.42922,0.28615 -0.95497,0.40596 -1.3842,0.6921 -0.27146,0.18098 -0.4614,0.4614 -0.6921,0.6921 -1.07158,1.07159 -2.07629,1.77925 -2.07629,3.4605 0,0.4614 -0.14591,0.94648 0,1.3842 0.20634,0.61903 1.02224,0.84127 1.38419,1.3842 0.28615,0.42922 0.32734,1.01943 0.6921,1.3842 0.72954,0.72954 1.94303,0.76516 2.7684,1.3842 0.52202,0.39151 0.82467,1.04848 1.3842,1.3842 2.32632,1.39579 1.59304,-0.0164 3.4605,1.3842 1.99569,1.49676 0.89733,0.99995 2.0763,2.76839 0.84424,1.26636 0.88238,0.0691 1.3842,2.0763 0.1119,0.44763 0,0.9228 0,1.3842 0,0.4614 0.0905,0.93176 0,1.3842 -0.28508,1.42538 -0.769,2.2301 -1.3842,3.4605 -0.2307,0.4614 -0.32733,1.01943 -0.6921,1.3842 -0.36477,0.36477 -0.97151,0.38258 -1.3842,0.6921 -0.78302,0.58726 -1.26191,1.53337 -2.0763,2.0763 -0.42922,0.28614 -0.9228,0.4614 -1.3842,0.6921 -1.83546,0.91773 -1.47783,0.6921 -3.4605,0.6921 -0.2307,0 -0.48575,0.10317 -0.6921,0 -0.29181,-0.14591 -0.4614,-0.4614 -0.6921,-0.6921 -0.2307,-0.2307 -0.54619,-0.40029 -0.6921,-0.6921 -0.10317,-0.20635 0.073,-0.47324 0,-0.6921 -0.16312,-0.48939 -0.56698,-0.88374 -0.69209,-1.3842 -0.95003,-3.80012 1.26851,1.15282 -0.6921,-2.7684"
             style="fill:none;stroke:#000000;stroke-width:1px;stroke-linecap:butt;stroke-linejoin:miter;stroke-opacity:1" />
          <path
             inkscape:connector-curvature="0"
             id="path4007"
             d="m 242.92694,491.76155 c 0,1.84559 0,3.69119 0,5.53679 0,0.4614 -0.1119,0.93658 0,1.3842 0.12512,0.50046 0.50052,0.90524 0.6921,1.3842 0.27095,0.67736 0.42116,1.39894 0.6921,2.0763 0.19159,0.47896 0.4614,0.9228 0.6921,1.3842 0.2307,0.4614 0.32733,1.01943 0.6921,1.3842 1.74818,1.74817 0.79784,0.26594 2.0763,0.6921 0.48939,0.16313 0.86834,0.6921 1.3842,0.6921 0.51586,0 0.89481,-0.52897 1.3842,-0.6921 0.21886,-0.073 0.48575,0.10317 0.6921,0 0.29181,-0.14591 0.4614,-0.4614 0.6921,-0.6921 0.2307,-0.2307 0.51112,-0.42064 0.6921,-0.6921 0.28614,-0.42922 0.4614,-0.9228 0.6921,-1.3842 0.2307,-0.4614 0.56698,-0.88374 0.6921,-1.3842 0.0667,-0.26696 0.0667,-3.88564 0,-4.1526 -0.12512,-0.50046 -0.56699,-0.88374 -0.6921,-1.3842 -0.22382,-0.89524 0.22381,-1.87315 0,-2.7684 -0.12512,-0.50045 -0.52897,-0.89481 -0.6921,-1.38419 -0.073,-0.21887 -0.16313,-0.85523 0,-0.6921 1.74817,1.74817 0.26594,0.79784 0.6921,2.07629 0.16313,0.48939 0.56698,0.88375 0.6921,1.3842 0.1119,0.44763 -0.11191,0.93658 0,1.3842 0.12511,0.50046 0.4614,0.9228 0.69209,1.3842 0.2307,0.6921 0.54903,1.36093 0.6921,2.0763 0.0905,0.45244 -0.1119,0.93658 0,1.3842 0.12512,0.50046 0.50052,0.90523 0.6921,1.3842 0.27095,0.67736 0.36584,1.42378 0.6921,2.0763 0.14591,0.29181 0.58893,0.38258 0.6921,0.6921 0.14591,0.43772 -0.1459,0.94647 0,1.3842 0.10318,0.30951 0.4614,0.4614 0.6921,0.6921 0.2307,0.2307 0.40029,0.54619 0.6921,0.6921 0.20635,0.10317 0.4614,0 0.6921,0"
             style="fill:none;stroke:#000000;stroke-width:1px;stroke-linecap:butt;stroke-linejoin:miter;stroke-opacity:1" />
          <path
             inkscape:connector-curvature="0"
             id="path4009"
             d="m 271.30302,494.52994 c 0.2307,-0.9228 -0.2307,-2.99909 0.6921,-2.76839 0.9228,0.2307 -0.6921,3.71959 -0.6921,2.76839 0,-1.17634 0.49871,-2.30016 0.6921,-3.46049 0.0379,-0.22756 0.10318,-0.48576 0,-0.6921 -0.1459,-0.29182 -0.4614,-0.4614 -0.6921,-0.6921 -0.2307,-0.2307 -0.40028,-0.54619 -0.6921,-0.6921 -0.20634,-0.10317 -0.4614,0 -0.69209,0 -0.2307,0 -0.48576,-0.10317 -0.6921,0 -0.58363,0.29181 -0.84128,1.02225 -1.3842,1.3842 -0.42923,0.28614 -0.95498,0.40595 -1.3842,0.6921 -0.6109,0.40726 -1.95152,2.83658 -2.0763,3.46049 -0.22622,1.1311 0,2.307 0,3.4605 0,0.6921 0,1.3842 0,2.0763 0,0.4614 -0.11191,0.93658 0,1.3842 0.12511,0.50046 0.4614,0.9228 0.6921,1.3842 0.92372,1.84745 0.92094,1.84467 2.7684,2.7684 0.51011,0.25505 1.35152,0.93369 2.0763,0.6921 0.48938,-0.16313 0.92279,-0.4614 1.38419,-0.6921 1.84746,-0.92373 1.84468,-0.92095 2.7684,-2.7684 0.2307,-0.4614 0.59093,-0.87836 0.6921,-1.3842 0.13573,-0.67866 0,-1.3842 0,-2.0763 0,-1.3842 0,-2.7684 0,-4.1526 0,-0.9228 0,-1.8456 0,-2.76839 0,-0.6921 0.0858,-1.38955 0,-2.0763 -0.14591,-1.16726 -0.43691,-2.31217 -0.6921,-3.4605 -0.20634,-0.92855 -0.57412,-1.82454 -0.6921,-2.7684 -0.11446,-0.91567 0.11446,-1.85272 0,-2.7684 -0.11798,-0.94385 -0.57411,-1.82454 -0.6921,-2.7684 0,-5.98706 0.29182,0.0749 -0.6921,-4.84469 -0.0905,-0.45244 0.11191,-0.93658 0,-1.3842 -0.27631,-1.10525 -1.97483,-2.7684 -0.6921,-2.7684 0.51586,0 0.52897,0.89481 0.6921,1.3842 0.073,0.21886 -0.0559,0.46829 0,0.6921 0.17694,0.70775 0.57217,1.35669 0.6921,2.0763 0.11378,0.68268 -0.11378,1.39361 0,2.0763 1.1492,6.89516 0.31137,-3.73793 1.3842,4.84469 0.11446,0.91568 -0.11446,1.85273 0,2.7684 0.11798,0.94386 0.4614,1.8456 0.6921,2.7684 0.2307,0.9228 0.4614,1.8456 0.6921,2.7684 0.2307,0.9228 0.57412,1.82454 0.6921,2.7684 0.69959,5.59669 -0.84489,0.23373 0.6921,4.84469 0.2307,0.6921 0.4614,1.3842 0.6921,2.0763 0,0.6921 -0.16786,1.40486 0,2.0763 0.0791,0.31652 0.51112,0.42064 0.6921,0.6921 0.28615,0.42922 0.52897,0.89481 0.6921,1.3842 0.073,0.21886 0.2307,0.6921 0,0.6921 -0.2307,0 -0.16313,-0.52897 0,-0.6921 0.9228,-0.9228 0.6921,1.1535 0.6921,-0.6921"
             style="fill:none;stroke:#000000;stroke-width:1px;stroke-linecap:butt;stroke-linejoin:miter;stroke-opacity:1" />
          <path
             inkscape:connector-curvature="0"
             id="path4011"
             d="m 285.14502,493.83784 c 1.56055,1.27464 0.38695,3.31899 0.69209,4.8447 0.14308,0.71537 0.54903,1.36093 0.6921,2.0763 0.0905,0.45244 -0.0905,0.93176 0,1.3842 0.14308,0.71537 0.54903,1.36093 0.6921,2.0763 0.0905,0.45244 -0.0905,0.93176 0,1.3842 0.16079,0.80393 0.85689,2.66952 1.3842,3.46049 0.18098,0.27147 0.5462,0.40029 0.6921,0.6921 0.10317,0.20635 -0.10317,0.48576 0,0.6921 0.14591,0.29182 0.54619,0.40029 0.6921,0.6921 0.10317,0.20635 0.2307,0.6921 0,0.6921 -0.2307,0 0,-0.4614 0,-0.6921 0,-0.4614 0.14591,-0.94647 0,-1.3842 -0.10317,-0.30951 -0.58893,-0.38258 -0.6921,-0.6921 -0.1459,-0.43772 0.11191,-0.93657 0,-1.38419 -0.12511,-0.50046 -0.59093,-0.87836 -0.6921,-1.3842 -0.13573,-0.67866 0.11378,-1.39362 0,-2.0763 -0.11993,-0.71961 -0.57216,-1.35669 -0.6921,-2.0763 -0.11378,-0.68268 0,-1.3842 0,-2.0763 0,-0.4614 0.1874,-0.96257 0,-1.3842 -0.7554,-1.69965 -3.07417,-3.01004 -2.76839,-4.8447 0.19338,-1.16033 2.30016,0.88549 3.46049,0.6921 0.50884,-0.0848 0.4614,-0.9228 0.6921,-1.3842 0.2307,-0.46139 0.40595,-0.95497 0.6921,-1.38419 0.71289,-1.06934 1.60516,-0.6921 2.7684,-0.6921 0.2307,0 0.52897,-0.16313 0.6921,0 0.36477,0.36476 0.40595,0.95497 0.6921,1.3842 0.18098,0.27146 0.51112,0.42063 0.6921,0.69209 0.52731,0.79098 1.22341,2.65657 1.3842,3.4605 0.0905,0.45244 -0.11191,0.93658 0,1.3842 0.12511,0.50046 0.59093,0.87836 0.6921,1.3842 0.13573,0.67866 0,1.3842 0,2.0763 0,0.4614 0.14591,0.94648 0,1.3842 -0.10317,0.30951 -0.58893,0.38258 -0.6921,0.6921 -0.39615,1.18844 0.60638,1.42706 -0.6921,2.0763 -0.20635,0.10317 -0.48576,-0.10318 -0.6921,0 -0.29182,0.1459 -0.36584,0.6921 -0.6921,0.6921 -0.51586,0 -0.89481,-0.52897 -1.3842,-0.6921 -0.21886,-0.073 -0.47324,0.0729 -0.6921,0 -1.4844,-0.4948 -2.3966,-1.7045 -3.4605,-2.7684"
             style="fill:none;stroke:#000000;stroke-width:1px;stroke-linecap:butt;stroke-linejoin:miter;stroke-opacity:1" />
          <path
             inkscape:connector-curvature="0"
             id="path4013"
             d="m 309.3685,495.22204 c 0,-0.9228 -0.9228,-2.76839 0,-2.76839 0.9228,0 0,3.69119 0,2.76839 0,-1.1535 0,-2.30699 0,-3.46049 0,-0.6921 0.21886,-1.41972 0,-2.0763 -0.10317,-0.30952 -0.54619,-0.40029 -0.6921,-0.6921 -0.10317,-0.20635 0.10317,-0.48576 0,-0.6921 -0.14591,-0.29182 -0.54619,-0.40029 -0.6921,-0.6921 -0.10317,-0.20635 0.16313,-0.52897 0,-0.6921 -0.16313,-0.16313 -0.48575,0.10317 -0.6921,0 -0.29181,-0.14591 -0.40028,-0.54619 -0.6921,-0.6921 -0.20634,-0.10317 -0.4614,0 -0.6921,0 -0.2307,0 -0.48575,-0.10317 -0.6921,0 -0.29181,0.14591 -0.4614,0.4614 -0.6921,0.6921 -0.2307,0.2307 -0.51112,0.42063 -0.6921,0.6921 -0.28614,0.42922 -0.4614,0.9228 -0.6921,1.3842 -0.2307,0.4614 -0.59093,0.87835 -0.6921,1.3842 -0.13573,0.67866 0,1.3842 0,2.0763 0,1.04967 -0.15487,4.60756 0,5.53679 0.21381,1.28285 0.8194,2.33089 1.3842,3.4605 0.2307,0.4614 0.32733,1.01943 0.6921,1.3842 0.36477,0.36477 0.95498,0.40595 1.3842,0.6921 0.27147,0.18097 0.38259,0.58893 0.6921,0.6921 0.43772,0.14591 0.9228,0 1.3842,0 0.2307,0 0.48576,0.10317 0.6921,0 0.79344,-0.39672 0.96272,-1.44408 1.3842,-2.0763 0.18097,-0.27146 0.51112,-0.42064 0.6921,-0.6921 0.46146,-0.69219 1.08295,-1.85641 0.6921,-2.7684 -0.5299,-1.23643 -1.68976,-2.17203 -2.0763,-3.4605 -0.33146,-1.10485 0.18963,-2.32269 0,-3.46049 -0.0536,-0.32182 -0.4614,-0.4614 -0.6921,-0.6921 -0.2307,-0.2307 -0.40028,-0.5462 -0.6921,-0.6921 -0.20634,-0.10318 -0.48575,0.10317 -0.6921,0 -0.56275,-0.28138 -0.57265,-1.09788 -1.3842,-0.6921 -1.53027,0.76513 -0.21477,0.42954 -0.6921,1.3842 -0.14591,0.29181 -0.54619,0.40028 -0.6921,0.6921 -0.10317,0.20634 0,0.4614 0,0.6921 0,0.2307 0,0.4614 0,0.69209"
             style="fill:none;stroke:#000000;stroke-width:1px;stroke-linecap:butt;stroke-linejoin:miter;stroke-opacity:1" />
          <path
             inkscape:connector-curvature="0"
             id="path4015"
             d="m 316.98159,475.15116 c -0.4468,2.06517 1.11516,3.65351 1.3842,5.53679 0.13051,0.91353 -0.11446,1.85273 0,2.7684 0.11799,0.94386 0.57412,1.82454 0.6921,2.7684 0.11446,0.91567 -0.1019,1.85124 0,2.7684 0.12991,1.16915 0.5622,2.29135 0.6921,3.4605 0.10191,0.91715 -0.11446,1.85272 0,2.76839 0.11798,0.94386 0.4614,1.8456 0.6921,2.7684 0.2307,0.9228 0.43079,1.8538 0.6921,2.7684 0.2307,0.6921 0.4614,1.3842 0.6921,2.0763 0,0.4614 -0.1119,0.93657 0,1.3842 0.12512,0.50046 0.56699,0.88374 0.6921,1.3842 0.11191,0.44762 -0.20634,0.97151 0,1.3842 0.10317,0.20634 0.52897,-0.16313 0.6921,0 0.16313,0.16313 0.2307,0.6921 0,0.6921 -0.2307,0 0,-0.4614 0,-0.6921 0,-0.2307 0,-0.4614 0,-0.6921"
             style="fill:none;stroke:#000000;stroke-width:1px;stroke-linecap:butt;stroke-linejoin:miter;stroke-opacity:1" />
          <path
             inkscape:connector-curvature="0"
             id="path4017"
             d="m 242.23484,479.30375 c 1.1535,0.6921 2.22407,1.5464 3.4605,2.0763 0.17106,0.0733 3.20895,0 3.4605,0 1.8456,0 3.6912,0 5.53679,0"
             style="fill:none;stroke:#000000;stroke-width:1px;stroke-linecap:butt;stroke-linejoin:miter;stroke-opacity:1" />
        </g>
      </g>
      <g
         style="stroke:#ff0000"
         id="g4047">
        <path
           style="fill:none;stroke:#ff0000;stroke-width:1px;stroke-linecap:butt;stroke-linejoin:miter;stroke-opacity:1"
           d="m 445.02001,809.43524 c -0.4614,1.3842 -1.06768,2.72827 -1.3842,4.1526 -0.15013,0.67562 0.11378,1.39361 0,2.0763 -0.11993,0.71961 -0.57216,1.35668 -0.6921,2.07629 -0.11378,0.68269 0,1.3842 0,2.0763 0,1.6149 0,3.2298 0,4.8447 0,1.8456 0,3.6912 0,5.5368 0,0.47791 -0.10521,2.55797 0,2.76839 0.14591,0.29182 0.5462,0.40029 0.6921,0.6921 0.091,0.18199 0,2.40649 0,2.7684 0,0.2307 0.16313,0.52897 0,0.6921 -0.16313,0.16313 -0.4614,0 -0.6921,0"
           id="path3991"
           inkscape:connector-curvature="0" />
        <path
           style="fill:none;stroke:#ff0000;stroke-width:1px;stroke-linecap:butt;stroke-linejoin:miter;stroke-opacity:1"
           d="m 429.79382,812.89574 c 1.30959,2.1647 3.08637,3.77847 4.8447,5.53679 0.2307,0.2307 0.43109,0.49635 0.6921,0.6921 0.66544,0.49908 1.42677,0.86458 2.0763,1.3842 0.50953,0.40763 0.87466,0.97658 1.3842,1.3842 0.64952,0.51962 1.48812,0.79603 2.07629,1.3842 2.307,2.307 0.2307,2.0763 3.4605,3.4605 0.87429,0.37469 1.89411,0.3174 2.7684,0.6921 0.76455,0.32766 1.36304,0.95624 2.0763,1.3842 1.6231,0.97386 1.47976,0.5919 3.4605,1.3842 0.47896,0.19158 0.90523,0.50051 1.3842,0.6921 0.93642,1.42617 2.34452,0.3201 3.46049,0.6921 0.30952,0.10317 0.40029,0.54619 0.6921,0.6921 0.20635,0.10317 0.48576,-0.10318 0.6921,0 1.71046,0.85522 -0.23889,0.69209 1.3842,0.69209"
           id="path3993"
           inkscape:connector-curvature="0" />
        <path
           style="fill:none;stroke:#ff0000;stroke-width:1px;stroke-linecap:butt;stroke-linejoin:miter;stroke-opacity:1"
           d="m 479.62499,819.81673 c 0.57375,0.21626 -0.2692,4.46001 0,5.5368 0.12511,0.50046 0.56698,0.88374 0.6921,1.3842 0.1119,0.44762 -0.11191,0.93657 0,1.3842 0.12511,0.50046 0.52897,0.89481 0.6921,1.3842 0.0729,0.21886 -0.073,0.47324 0,0.6921 0.16313,0.48938 0.52897,0.89481 0.6921,1.3842 0.073,0.21886 -0.10317,0.48575 0,0.6921 0.14591,0.29181 0.54619,0.40028 0.6921,0.69209 0.10317,0.20635 -0.16313,0.52897 0,0.6921 0.16313,0.16313 0.52897,0.16313 0.6921,0 0.14149,-0.14149 -0.13721,-1.80188 0,-2.07629 0.1459,-0.29182 0.58892,-0.38259 0.6921,-0.6921 0.1459,-0.43773 0,-0.9228 0,-1.3842 0,-1.3842 0,-2.7684 0,-4.1526 0,-0.4614 -0.11191,-0.93658 0,-1.3842 0.12511,-0.50046 0.56698,-0.88374 0.6921,-1.3842 0.23568,-0.94273 -0.2791,-3.3153 0,-4.1526 0.10317,-0.30951 0.54619,-0.40028 0.6921,-0.6921 0.47732,-0.95465 -0.83817,-0.61906 0.6921,-1.38419 0.57279,-0.2864 1.15909,0.24189 1.38419,0.6921 0.10318,0.20634 -0.10317,0.48575 0,0.69209 1.0553,2.1106 0.54868,-1.26581 1.3842,2.0763 0.11191,0.44763 -0.1459,0.94648 0,1.3842 0.10318,0.30952 0.4614,0.4614 0.6921,0.6921 0.2307,0.4614 0.56699,0.88374 0.6921,1.3842 0.11191,0.44762 -0.1459,0.94648 0,1.3842 0.10317,0.30952 0.54619,0.40028 0.6921,0.6921 0.2386,0.4772 -0.52219,2.0763 0.6921,2.0763 1.05021,0 0.55423,-0.97058 0.6921,-1.3842 0.16313,-0.48939 0.52897,-0.89481 0.6921,-1.3842 0.68676,-2.06026 -1.6388,1.42005 0.6921,-2.0763 0.18098,-0.27146 0.51112,-0.42063 0.6921,-0.6921 0.2307,-0.4614 0.4614,-0.9228 0.6921,-1.3842 0,-0.2307 -0.10317,-0.48575 0,-0.6921 0.0919,-0.18376 1.89254,-1.98442 2.0763,-2.0763 0.20634,-0.10317 0.4614,0 0.6921,0 0.2307,0 0.52897,-0.16312 0.6921,0 0.16313,0.16313 -0.10317,0.48576 0,0.6921 1.58373,3.16747 -0.28686,-2.93686 1.3842,2.0763 0.0729,0.21886 -0.073,0.47324 0,0.6921 0.16313,0.48939 0.56698,0.88374 0.6921,1.3842 0.1119,0.44762 -0.11191,0.93658 0,1.3842 0.25022,1.00092 1.05794,1.78962 1.38419,2.7684 0.2864,0.85919 -0.56815,0.75407 0.6921,1.3842 0.67891,0.33945 1.00903,-0.31693 1.3842,-0.6921"
           id="path4019"
           inkscape:connector-curvature="0" />
        <path
           style="fill:none;stroke:#ff0000;stroke-width:1px;stroke-linecap:butt;stroke-linejoin:miter;stroke-opacity:1"
           d="m 519.07466,821.20093 c -0.2307,-0.9228 -1.6149,-2.5377 -0.6921,-2.7684 0.9228,-0.2307 1.3647,3.441 0.6921,2.7684 -0.87848,-0.87848 -0.99133,-2.28189 -1.3842,-3.4605 -0.0729,-0.21886 0.16313,-0.52897 0,-0.69209 -0.16312,-0.16313 -0.48575,0.10317 -0.69209,0 -0.29182,-0.14591 -0.40029,-0.5462 -0.6921,-0.6921 -0.41269,-0.20635 -0.97152,0.20634 -1.3842,0 -0.29182,-0.14591 -0.40029,-0.5462 -0.6921,-0.6921 -0.20635,-0.10318 -0.4614,0 -0.6921,0 -0.4614,0 -0.94648,-0.14591 -1.3842,0 -0.61903,0.20634 -0.84127,1.02224 -1.3842,1.3842 -0.42922,0.28614 -0.95498,0.40595 -1.3842,0.69209 -0.63318,0.42212 -1.2161,1.40391 -1.3842,2.0763 -0.0667,0.26696 -0.0667,3.88564 0,4.1526 0.12512,0.50046 0.56699,0.88374 0.6921,1.3842 0.11191,0.44762 -0.25594,1.00029 0,1.3842 0.28615,0.42922 1.01943,0.32733 1.3842,0.6921 0.36477,0.36477 0.40595,0.95498 0.6921,1.3842 0.61743,0.92614 1.70156,1.3842 2.7684,1.3842 0.31169,0 1.86567,0.10531 2.0763,0 0.29181,-0.14591 0.4614,-0.4614 0.6921,-0.6921 0.2307,-0.2307 0.54619,-0.40029 0.6921,-0.6921 0.10317,-0.20635 -0.10318,-0.48576 0,-0.6921 0.1459,-0.29182 0.58892,-0.38259 0.69209,-0.6921 0.29182,-0.87545 -0.25351,-1.88111 0,-2.7684 0.34131,-1.19456 1.50782,-2.22431 1.3842,-3.4605 -0.13385,-1.33852 -1.4747,-2.25731 -2.07629,-3.4605 -0.10318,-0.20634 0.16312,-0.52897 0,-0.69209 -0.16313,-0.16313 -0.52898,-0.16313 -0.6921,0 -0.16313,0.16312 -0.12797,0.50014 0,0.69209 0.8194,1.22911 2.34392,2.0456 2.76839,3.4605 0.33802,1.12673 -0.6921,2.28416 -0.6921,3.4605 0,0.32626 0.5462,0.40028 0.6921,0.6921 0.10318,0.20634 -0.10317,0.48576 0,0.6921 0.14591,0.29181 0.5462,0.40028 0.6921,0.6921 0.4614,0.9228 -0.6921,0.6921 0.6921,0.6921"
           id="path4021"
           inkscape:connector-curvature="0" />
        <path
           style="fill:none;stroke:#ff0000;stroke-width:1px;stroke-linecap:butt;stroke-linejoin:miter;stroke-opacity:1"
           d="m 535.68505,817.04834 c -0.2307,-0.9228 -1.6149,-2.5377 -0.6921,-2.7684 0.9228,-0.2307 1.3647,3.44099 0.6921,2.7684 -0.87848,-0.87848 -0.74501,-2.39519 -1.3842,-3.4605 -0.11869,-0.19783 -0.48575,0.10317 -0.6921,0 -0.29181,-0.14591 -0.40028,-0.54619 -0.6921,-0.6921 -0.20634,-0.10317 -0.46139,0 -0.69209,0 -0.4614,0 -0.9228,0 -1.3842,0 -0.4614,0 -0.94648,-0.14591 -1.3842,0 -1.45331,0.48443 -3.77096,2.62602 -4.1526,4.1526 -0.11191,0.44762 0,0.92279 0,1.38419 0,0.4614 0,0.9228 0,1.3842 0,0.4614 0,0.9228 0,1.3842 0,0.4614 -0.11191,0.93658 0,1.3842 0.12511,0.50046 0.4614,0.9228 0.6921,1.3842 0.2307,0.4614 0.40595,0.95498 0.6921,1.3842 0.18097,0.27146 0.4614,0.4614 0.6921,0.6921 0.2307,0.2307 0.4614,0.4614 0.6921,0.6921 0.2307,0.2307 0.40028,0.54619 0.6921,0.6921 0.20634,0.10317 0.4614,0 0.6921,0 1.95172,0 1.32421,0.06 2.7684,-1.3842 0.2307,-0.2307 0.46139,-0.4614 0.69209,-0.6921 0.2307,-0.2307 0.5462,-0.40029 0.6921,-0.6921 0.10318,-0.20634 0,-0.4614 0,-0.6921 0,-0.4614 -0.1459,-0.94648 0,-1.3842 0.10318,-0.30951 0.4614,-0.4614 0.6921,-0.6921 0,-0.4614 -0.12675,-0.94055 0,-1.3842 0.34131,-1.19455 1.9398,-2.3493 1.3842,-3.46049 -0.42539,-0.85078 -1.8172,0.69209 -2.7684,0.69209 -1.05437,0 -0.90559,-2.28979 0,-1.38419 0.16313,0.16312 0,0.4614 0,0.6921 0.9228,0 2.01749,-0.53637 2.7684,0 1.09464,0.78188 1.4089,2.29253 2.0763,3.46049 0.76246,1.33431 1.38891,2.77781 2.0763,4.1526 0.2307,0.4614 0.59093,0.87836 0.6921,1.3842 0.0494,0.24697 0.0953,4.36839 0,4.8447 -0.22942,1.1471 -1.37992,3.80013 -2.0763,4.84469 -0.18097,0.27147 -0.51112,0.42064 -0.6921,0.6921 -0.67239,1.00859 -0.43208,1.44155 -1.3842,2.0763 -0.42922,0.28615 -0.9228,0.4614 -1.3842,0.6921 -0.4614,0.2307 -0.89481,0.52897 -1.3842,0.6921 -0.21886,0.0729 -0.47323,-0.0729 -0.6921,0 -0.48938,0.16313 -0.89481,0.52897 -1.38419,0.6921 -0.21887,0.0729 -0.4614,0 -0.6921,0 -0.4614,0 -0.94648,0.14591 -1.3842,0 -0.15434,-0.0514 -2.66709,-2.56577 -2.7684,-2.7684 -0.10317,-0.20634 0,-0.4614 0,-0.6921 0,-0.4614 0.1119,-0.93657 0,-1.3842 -0.89845,-3.59377 -0.6921,0.73885 -0.6921,-2.7684"
           id="path4023"
           inkscape:connector-curvature="0" />
        <path
           style="fill:none;stroke:#ff0000;stroke-width:1px;stroke-linecap:butt;stroke-linejoin:miter;stroke-opacity:1"
           d="m 541.91395,814.27994 c 1.59054,3.18108 1.3842,1.73667 1.3842,4.15259 0,0.4614 -0.11191,0.93658 0,1.3842 0.12511,0.50046 0.52897,0.89481 0.6921,1.3842 0.073,0.21886 -0.073,0.47324 0,0.6921 0.32626,0.97878 1.05794,1.78962 1.3842,2.7684 0.0729,0.21886 -0.10318,0.48576 0,0.6921 0.1459,0.29181 0.54619,0.40028 0.6921,0.6921 0.10317,0.20634 -0.16313,0.52897 0,0.6921 0.16313,0.16313 0.52897,0.16313 0.6921,0 0.16313,-0.16313 -0.10318,-0.48576 0,-0.6921 0.1459,-0.29182 0.58892,-0.38258 0.6921,-0.6921 0.1459,-0.43772 0,-0.9228 0,-1.3842 0,-0.4614 0,-0.9228 0,-1.3842 0,-3.50724 -0.20635,0.82538 0.69209,-2.7684 0.13611,-0.54441 0,-3.43286 0,-4.15259 0,-0.2307 -0.10317,-0.48576 0,-0.6921 0.14591,-0.29182 0.5462,-0.40029 0.6921,-0.6921 0.10318,-0.20635 -0.16313,-0.52897 0,-0.6921 0.16313,-0.16313 0.52897,-0.16313 0.6921,0 0.16313,0.16313 -0.16313,0.52897 0,0.6921 0.16313,0.16313 0.52897,-0.16313 0.6921,0 0.16313,0.16313 -0.0729,0.47324 0,0.6921 0.16313,0.48938 0.40596,0.95497 0.6921,1.3842 0.18098,0.27146 0.51113,0.42063 0.6921,0.6921 0.5723,0.85844 0.81191,1.90995 1.3842,2.76839 0.18098,0.27147 0.51113,0.42064 0.6921,0.6921 0.5723,0.85845 0.8119,1.90996 1.3842,2.7684 0.19557,0.29336 1.78994,1.93312 2.0763,2.0763 0.20634,0.10317 0.4614,0 0.6921,0"
           id="path4025"
           inkscape:connector-curvature="0" />
        <path
           style="fill:none;stroke:#ff0000;stroke-width:1px;stroke-linecap:butt;stroke-linejoin:miter;stroke-opacity:1"
           d="m 566.13743,823.96933 -4.84469,-1.3842"
           id="path4027"
           inkscape:connector-curvature="0" />
        <path
           style="fill:none;stroke:#ff0000;stroke-width:1px;stroke-linecap:butt;stroke-linejoin:miter;stroke-opacity:1"
           d="m 584.13202,822.58513 c 0.2307,0.9228 1.6149,2.5377 0.6921,2.7684 -0.9228,0.2307 -0.6921,-3.7196 -0.6921,-2.7684 0,1.17634 0.49871,4.62084 0.6921,3.4605 0.4172,-2.50317 0,-5.0754 0,-7.6131 0,-0.9228 0.18098,-1.86351 0,-2.76839 -0.14307,-0.71537 -0.54902,-1.36093 -0.6921,-2.0763 -0.0905,-0.45244 0.11191,-0.93658 0,-1.3842 -0.12511,-0.50046 -0.56698,-0.88374 -0.6921,-1.3842 -0.1119,-0.44762 0.11191,-0.93658 0,-1.3842 -0.12511,-0.50046 -0.52897,-0.89481 -0.6921,-1.3842 -0.0729,-0.21886 0.073,-0.47324 0,-0.6921 -0.16313,-0.48939 -0.52897,-0.89481 -0.6921,-1.3842 -0.0729,-0.21886 0.073,-0.47324 0,-0.6921 -0.16313,-0.48939 -0.52897,-0.89481 -0.6921,-1.3842 -0.0729,-0.21886 0.10318,-0.48575 0,-0.6921 -0.1459,-0.29181 -0.54619,-0.40028 -0.6921,-0.6921 -0.10317,-0.20634 0.10318,-0.48575 0,-0.6921 -0.1459,-0.29181 -0.54619,-0.40028 -0.6921,-0.69209 -0.10317,-0.20635 -0.2307,-0.6921 0,-0.6921 1.14771,0 0.48529,0.97057 0.6921,1.38419 0.14591,0.29182 0.58893,0.38259 0.6921,0.6921 0.99885,2.99653 -1.32308,-0.25437 0.6921,2.7684 0.18098,0.27147 0.4614,0.4614 0.6921,0.6921 0.2307,0.6921 0.31676,1.45073 0.6921,2.0763 0.33572,0.55953 1.04848,0.82467 1.3842,1.3842 0.37534,0.62557 0.31676,1.45073 0.6921,2.0763 0.33572,0.55953 0.97658,0.87467 1.3842,1.3842 1.03924,1.29905 1.72916,2.85354 2.7684,4.1526 0.40762,0.50953 0.9228,0.92279 1.3842,1.38419 0.9228,0.9228 1.8456,1.8456 2.7684,2.7684 0.73263,0.73264 1.45814,2.03933 2.76839,1.3842 0.20635,-0.10317 -0.10317,-0.48575 0,-0.6921 0.14591,-0.29181 0.5462,-0.40028 0.6921,-0.6921 0.10318,-0.20634 0,-0.4614 0,-0.6921 0,-0.4614 -0.1119,-0.93657 0,-1.3842 0.12512,-0.50045 0.56699,-0.88374 0.6921,-1.3842 0.11191,-0.44762 0,-0.92279 0,-1.38419 0,-0.6921 0,-1.3842 0,-2.0763 0,-0.71973 0.13611,-3.60818 0,-4.1526 -0.12511,-0.50046 -0.52897,-0.89481 -0.6921,-1.3842 -0.0729,-0.21886 0,-0.4614 0,-0.6921 0,-1.1535 0,-2.307 0,-3.4605 0,-2.70365 0.20635,-0.0731 -0.6921,-2.7684 -0.073,-0.21886 0.073,-0.47323 0,-0.69209 -0.16313,-0.48939 -0.52897,-0.89482 -0.6921,-1.3842 -0.1459,-0.43773 0.20635,-0.97151 0,-1.3842 -0.1459,-0.29182 -0.54619,-0.40029 -0.6921,-0.6921 -0.20634,-0.41269 0.32626,-1.05794 0,-1.3842 -0.16313,-0.16313 -0.52897,-0.16313 -0.6921,0 -0.16312,0.16313 0,0.4614 0,0.6921"
           id="path4031"
           inkscape:connector-curvature="0" />
        <path
           style="fill:none;stroke:#ff0000;stroke-width:1px;stroke-linecap:butt;stroke-linejoin:miter;stroke-opacity:1"
           d="m 613.8923,814.97204 c -0.4614,-0.9228 -2.307,-2.307 -1.3842,-2.7684 0.9228,-0.4614 2.11374,3.49793 1.3842,2.7684 -0.9512,-0.9512 -1.4747,-2.25732 -2.0763,-3.4605 -0.10317,-0.20635 0.16313,-0.52897 0,-0.6921 -0.32626,-0.32626 -0.97151,0.20634 -1.3842,0 -0.29181,-0.14591 -0.40028,-0.54619 -0.6921,-0.6921 -0.20634,-0.10317 -0.46139,0 -0.69209,0 -0.4614,0 -0.9228,0 -1.3842,0 -1.32708,0 -1.07151,-0.31269 -2.0763,0.6921 -0.2307,0.2307 -0.54619,0.40028 -0.6921,0.6921 -0.10317,0.20634 0.10317,0.48575 0,0.6921 -0.14591,0.29181 -0.58893,0.38258 -0.6921,0.6921 -0.0224,0.0673 -0.0202,3.37973 0,3.4605 0.50181,2.00725 0.53996,0.80993 1.3842,2.07629 0.28615,0.42923 0.40595,0.95498 0.6921,1.3842 0.18097,0.27147 0.4614,0.4614 0.6921,0.6921 0.2307,0.2307 0.40028,0.54619 0.6921,0.6921 0.20634,0.10317 0.4614,0 0.6921,0 2.03824,0 2.55044,0.21796 4.15259,-1.3842 0.2307,-0.2307 0.60247,-0.37839 0.6921,-0.6921 0.38552,-1.3493 0.81915,-2.75506 0.6921,-4.15259 -0.2258,-2.48386 -0.84175,-2.91805 -2.0763,-4.1526 -0.2307,-0.2307 -0.40028,-0.54619 -0.6921,-0.6921 -0.20634,-0.10317 -0.48575,0.10317 -0.6921,0 -2.03671,-1.01836 1.07434,-0.6921 -2.07629,-0.6921 -0.2307,0 -0.4614,0 -0.6921,0 -0.2307,0 -0.48576,-0.10317 -0.6921,0 -0.29182,0.14591 -0.40029,0.54619 -0.6921,0.6921 -0.20635,0.10317 -0.48576,-0.10317 -0.6921,0 -0.58363,0.29181 -0.80057,1.09238 -1.3842,1.3842 -0.20635,0.10317 -0.52897,-0.16313 -0.6921,0 -0.16313,0.16313 0.10317,0.48575 0,0.6921 -0.85523,1.71046 -0.6921,-0.2389 -0.6921,1.3842"
           id="path4033"
           inkscape:connector-curvature="0" />
        <path
           style="fill:none;stroke:#ff0000;stroke-width:1px;stroke-linecap:butt;stroke-linejoin:miter;stroke-opacity:1"
           d="m 617.3528,808.74314 c 0.4614,1.1535 0.8286,2.3493 1.3842,3.4605 0.14591,0.29181 0.51112,0.42063 0.6921,0.6921 0.85181,1.27772 1.22448,2.87487 2.0763,4.1526 0.18097,0.27146 0.54619,0.40028 0.6921,0.69209 0.10317,0.20635 -0.10318,0.48576 0,0.6921 0.0901,0.18019 0.90687,1.16943 1.3842,0.6921 0.54103,-0.54103 -0.60201,-1.20401 -0.6921,-1.3842 -0.22799,-0.45597 0.21334,-3.51257 0,-4.15259 -0.10318,-0.30952 -0.58893,-0.38259 -0.6921,-0.6921 -0.0151,-0.0455 -0.0151,-3.41505 0,-3.4605 0.10317,-0.30952 0.54619,-0.40028 0.6921,-0.6921 0.10317,-0.20634 -0.10318,-0.48575 0,-0.6921 0.1459,-0.29181 0.4614,-0.4614 0.6921,-0.6921 0.2307,-0.2307 0.40028,-0.54619 0.6921,-0.6921 2.03671,-1.01836 -0.91121,1.60331 1.38419,-0.6921"
           id="path4035"
           inkscape:connector-curvature="0" />
        <path
           style="fill:none;stroke:#ff0000;stroke-width:1px;stroke-linecap:butt;stroke-linejoin:miter;stroke-opacity:1"
           d="m 636.73159,810.12734 c 0,-0.9228 -0.9228,-2.7684 0,-2.7684 0.9228,0 0,3.6912 0,2.7684 0,-1.1535 0.18963,-2.32269 0,-3.4605 -0.0536,-0.32182 -0.4614,-0.4614 -0.6921,-0.6921 -0.2307,-0.2307 -0.40029,-0.54619 -0.6921,-0.6921 -0.20635,-0.10317 -0.48576,0.10317 -0.6921,0 -0.29182,-0.1459 -0.40029,-0.54619 -0.6921,-0.6921 -0.20634,-0.10317 -0.4614,0 -0.6921,0 -0.2307,0 -0.48576,-0.10317 -0.6921,0 -0.29181,0.14591 -0.40028,0.5462 -0.6921,0.6921 -0.20634,0.10317 -0.48575,-0.10317 -0.6921,0 -0.63349,0.31675 -1.2156,1.57052 -1.3842,2.0763 -0.0909,0.27282 -0.0909,2.49558 0,2.7684 0.16313,0.48939 0.56699,0.88374 0.6921,1.3842 0.11191,0.44762 -0.1119,0.93657 0,1.3842 0.50181,2.00725 0.53996,0.80994 1.3842,2.0763 0.24226,0.36339 0.70411,1.8496 1.3842,2.0763 0.43772,0.1459 0.94648,-0.14591 1.3842,0 0.67531,0.2251 0.49306,1.13766 1.3842,0.69209 0.29181,-0.1459 0.4614,-0.4614 0.6921,-0.69209 0.2307,-0.2307 0.54619,-0.40029 0.6921,-0.6921 0.10317,-0.20635 -0.073,-0.47324 0,-0.6921 0.21254,-0.63764 0.9527,-1.29449 0.6921,-2.0763 -0.39287,-1.17861 -1.3842,-2.21814 -1.3842,-3.4605 0,-1.67952 1.21708,-3.17351 1.3842,-4.8447 0.0142,-0.1418 -1.32594,-3.803 -1.3842,-4.15259 -0.11378,-0.68269 0.11378,-1.39362 0,-2.0763 -0.11994,-0.71961 -0.4614,-1.3842 -0.6921,-2.0763 -0.85523,-2.56569 -0.36584,-1.42378 -1.3842,-3.4605 -0.2307,-0.4614 -0.4614,-0.9228 -0.6921,-1.3842 -0.2307,-0.4614 -0.56699,-0.88374 -0.6921,-1.3842 -0.11191,-0.44762 0.14591,-0.94647 0,-1.3842 -0.10317,-0.30951 -0.36584,-0.6921 -0.6921,-0.6921 -0.2307,0 0,0.4614 0,0.6921 0,0.4614 -0.14591,0.94648 0,1.3842 0.16313,0.48939 0.56699,0.88374 0.6921,1.3842 1.23249,4.92996 -2.09465,-3.50636 0.6921,3.4605 0.19159,0.47896 0.52897,0.89481 0.6921,1.3842 0.86904,3.47615 0.3913,1.86601 1.3842,4.84469 0.2307,0.6921 0.4614,1.3842 0.6921,2.0763 0.2307,0.6921 0.6921,1.34677 0.6921,2.0763 0,1.40329 -1.18483,2.83866 -0.6921,4.1526 0.36226,0.96603 1.96276,0.73969 2.7684,1.3842 2.2509,1.80072 0.0411,0.77434 0.6921,2.0763 0.29181,0.58363 1.09238,0.80057 1.38419,1.3842 1.01836,2.03671 -1.6033,-0.91121 0.6921,1.3842"
           id="path4037"
           inkscape:connector-curvature="0" />
        <path
           style="fill:none;stroke:#ff0000;stroke-width:1px;stroke-linecap:butt;stroke-linejoin:miter;stroke-opacity:1"
           d="m 644.34468,807.35894 c 0.4614,0.9228 1.05794,1.78962 1.3842,2.7684 0.14591,0.43772 -0.1119,0.93658 0,1.3842 0.25023,1.00092 1.00103,1.81047 1.3842,2.7684 0.27094,0.67735 0.42116,1.39894 0.6921,2.0763 0.19159,0.47896 0.50051,0.90523 0.6921,1.38419 0.27094,0.67736 0.31676,1.45073 0.6921,2.0763 0.33572,0.55953 1.04848,0.82467 1.3842,1.3842 0.37534,0.62558 0.42115,1.39894 0.6921,2.0763 1.25453,3.13633 0.0639,0.0958 1.3842,2.0763 0.28615,0.42922 0.40595,0.95498 0.6921,1.3842 0.18097,0.27146 0.54619,0.40028 0.6921,0.6921 0.10317,0.20634 -0.10318,0.48575 0,0.6921 0.1459,0.29181 0.54619,0.40028 0.6921,0.6921 0.10317,0.20634 0.16313,0.52897 0,0.6921 -0.47733,0.47732 -1.29411,-0.51191 -1.3842,-0.6921 -0.10318,-0.20635 0.10317,-0.48576 0,-0.6921 -0.29182,-0.58363 -1.02225,-0.84127 -1.3842,-1.3842 -0.28615,-0.42922 -0.4614,-0.9228 -0.6921,-1.3842 -0.4614,-0.9228 -1.00103,-1.81047 -1.3842,-2.7684 -0.27094,-0.67736 -0.4614,-1.3842 -0.6921,-2.0763 -0.2307,-0.6921 -0.57217,-1.35668 -0.6921,-2.0763 -0.11378,-0.68268 0.11378,-1.39361 0,-2.07629 -0.11994,-0.71962 -0.58893,-1.3541 -0.6921,-2.0763 -0.1305,-0.91353 0,-1.8456 0,-2.7684 0,-0.6921 -0.11378,-1.39362 0,-2.0763 0.11994,-0.71961 0.57216,-1.35669 0.6921,-2.0763 0.38159,-2.28953 -0.62109,-1.96395 0.6921,-4.1526 0.33572,-0.55953 0.99269,-0.86218 1.3842,-1.3842 2.307,-3.07599 -1.1535,0.0769 2.0763,-2.07629 0.27146,-0.18098 0.38258,-0.58893 0.6921,-0.6921 0.82235,-0.27412 2.17642,0.10012 2.76839,0.6921 0.16793,0.16792 1.92662,3.77839 2.0763,4.15259 0.27095,0.67736 0.42116,1.39894 0.6921,2.0763 0.19159,0.47897 0.59093,0.87836 0.6921,1.3842 0.0564,0.28198 0.0564,5.25482 0,5.5368 -0.10117,0.50584 -0.52897,0.89481 -0.6921,1.3842 -0.31446,0.94339 0.80634,1.07734 -0.6921,2.0763 -0.3839,0.25593 -0.94647,-0.14591 -1.3842,0 -0.30951,0.10317 -0.36584,0.6921 -0.6921,0.6921 -0.51586,0 -0.89481,-0.52898 -1.38419,-0.6921 -0.21887,-0.073 -0.47324,0.0729 -0.6921,0 -1.2662,-0.42207 -1.8775,-1.1854 -2.7684,-2.0763 -0.2307,-0.2307 -0.58893,-0.38259 -0.6921,-0.6921 -0.21886,-0.65659 0,-1.3842 0,-2.0763"
           id="path4039"
           inkscape:connector-curvature="0" />
        <path
           style="fill:none;stroke:#ff0000;stroke-width:1px;stroke-linecap:butt;stroke-linejoin:miter;stroke-opacity:1"
           d="m 669.26027,807.35894 c -0.74806,-2.99221 -0.6921,-1.8172 -0.6921,-3.4605 0,-0.2307 0.10317,-0.48575 0,-0.6921 -1.44018,-2.88035 0.0478,0.73988 -1.3842,-0.6921 -0.16313,-0.16312 0,-0.4614 0,-0.6921 -0.2307,0 -0.48576,0.10318 -0.6921,0 -0.29182,-0.1459 -0.40029,-0.54619 -0.6921,-0.69209 -0.0362,-0.0181 -2.04009,-0.0181 -2.0763,0 -0.29181,0.1459 -0.4614,0.4614 -0.6921,0.69209 -0.2307,0.2307 -0.54619,0.40029 -0.6921,0.6921 -0.10317,0.20635 0.0729,0.47324 0,0.6921 -0.16313,0.48939 -0.52897,0.89481 -0.6921,1.3842 -0.0729,0.21886 0,0.4614 0,0.6921 0,0.4614 -0.1119,0.93658 0,1.3842 0.12512,0.50046 0.52897,0.89481 0.6921,1.3842 0.0729,0.21886 -0.073,0.47324 0,0.6921 0.26383,0.7915 1.34864,2.97539 2.0763,3.4605 3.49635,2.3309 0.016,0.005 2.0763,0.6921 0.48939,0.16313 0.86834,0.6921 1.3842,0.6921 0.32626,0 0.38258,-0.58893 0.6921,-0.6921 0.43772,-0.14591 0.94647,0.14591 1.3842,0 0.30951,-0.10317 0.4614,-0.4614 0.6921,-0.6921 0.2307,-0.2307 0.4614,-0.4614 0.6921,-0.6921 0.8133,-0.8133 2.53045,-2.09804 2.07629,-3.4605 -0.16313,-0.48939 -0.52897,-0.89481 -0.6921,-1.3842 -0.0729,-0.21886 0,-0.4614 0,-0.6921 -1.1535,0.4614 -2.77136,2.4179 -3.46049,1.3842 -0.74619,-1.11927 1.70674,-2.16705 2.0763,-3.4605 0.13447,-0.47067 -0.94239,-1.78175 -1.3842,-2.0763 -0.42923,-0.28614 -0.9228,-0.46139 -1.3842,-0.69209 -1.83546,-0.91773 -1.47784,-0.6921 -3.4605,-0.6921 -0.2307,0 -0.4614,0 -0.6921,0 -0.2307,0 -0.48576,-0.10318 -0.6921,0 -0.29181,0.1459 -0.40028,0.54619 -0.6921,0.6921 -0.20634,0.10317 -0.48575,-0.10318 -0.6921,0 -0.96066,0.48033 -0.6921,1.23146 -0.6921,2.07629"
           id="path4041"
           inkscape:connector-curvature="0" />
        <path
           style="fill:none;stroke:#ff0000;stroke-width:1px;stroke-linecap:butt;stroke-linejoin:miter;stroke-opacity:1"
           d="m 678.25756,785.21176 c -0.64539,1.53954 1.05992,2.85547 1.3842,4.15259 0.11191,0.44763 -0.11191,0.93658 0,1.3842 0.12511,0.50046 0.59093,0.87836 0.6921,1.3842 0.13573,0.67866 -0.0979,1.39116 0,2.0763 0.30909,2.16362 0.82077,2.87268 1.3842,4.8447 0.9788,3.42581 1.44073,7.06233 2.7684,10.38149 1.96061,3.92122 -0.25793,-1.03172 0.6921,2.7684 0.12511,0.50046 0.52897,0.89481 0.6921,1.3842 0.0729,0.21886 0.2307,0.6921 0,0.6921 -0.2307,0 0,-0.4614 0,-0.6921 0,-0.2307 0,-0.4614 0,-0.6921"
           id="path4045"
           inkscape:connector-curvature="0" />
      </g>
    </g>
  </g>
</svg>
